<?xml version="1.0" encoding="UTF-8" standalone="no"?>
<svg width="100px" height="100px" viewBox="0 0 100 100" version="1.1" xmlns="http://www.w3.org/2000/svg" xmlns:xlink="http://www.w3.org/1999/xlink">
    <!-- Generator: Sketch 41 (35326) - http://www.bohemiancoding.com/sketch -->
    <title>Slice 2</title>
    <desc>Created with Sketch.</desc>
    <defs></defs>
    <g id="Page-1" stroke="none" stroke-width="1" fill="none" fill-rule="evenodd">
        <g id="twitter-copy-2">
            <rect id="Rectangle-path" x="1" y="0" width="100" height="100"></rect>
            <g id="logo" transform="translate(19.000000, 18.000000)" fill="#202020">
                <g id="Page-1">
                    <g id="logo">
                        <g id="Page-1">
                            <g id="asd">
                                <g id="Logo-5-+-BUILD-IT-WITH-ME">
                                    <g id="Logo-5" transform="translate(32.241260, 32.660801) rotate(-45.000000) translate(-32.241260, -32.660801) translate(11.241260, 8.160801)">
                                        <path d="M27.8450671,30.0026809 L38.6746225,30.0026809 C39.3803251,30.0026809 39.9514611,29.4334692 39.9514611,28.7313112 L39.9514611,19.9024218 C39.9514611,19.202766 39.379801,18.6310521 38.6746225,18.6310521 L37.4148604,18.6310521 L37.4148604,18.6310521 L37.4148604,20.8392084 C37.4148604,21.3642265 36.9879134,21.7898379 36.4636351,21.7898379 C35.9382879,21.7898379 35.5124099,21.3676247 35.5124099,20.8392084 L35.5124099,18.6310521 L32.341659,18.6310521 L32.341659,23.372045 C32.341659,23.8938555 31.914712,24.3168664 31.3904338,24.3168664 C30.8650865,24.3168664 30.4392085,23.8930298 30.4392085,23.372045 L30.4392085,18.6310521 L30.4392085,18.6310521 L27.8450671,18.6310521 L27.8450671,16.7357805 L13.5853013,16.7357805 L13.5853013,18.6310521 L12.0488533,18.6310521 L12.0488533,18.6310521 L12.0488533,23.372045 C12.0488533,23.8938555 11.6219063,24.3168664 11.0976281,24.3168664 C10.5722809,24.3168664 10.1464028,23.8930298 10.1464028,23.372045 L10.1464028,18.6310521 L6.97565194,18.6310521 L6.97565194,20.8392084 C6.97565194,21.3642265 6.5487049,21.7898379 6.02442668,21.7898379 C5.49907946,21.7898379 5.07320141,21.3676247 5.07320141,20.8392084 L5.07320141,18.6310521 L5.07320141,18.6310521 L3.17928915,18.6310521 C2.4735865,18.6310521 1.90245053,19.2002636 1.90245053,19.9024218 L1.90245053,28.7313112 C1.90245053,29.4309669 2.47411065,30.0026809 3.17928915,30.0026809 L13.5853013,30.0026809 L13.5853013,31.8979523 L27.8450671,31.8979523 L27.8450671,30.0026809 L27.8450671,30.0026809 L27.8450671,30.0026809 Z M9.23705556e-14,19.9142687 C9.23705556e-14,18.1588381 1.42859846,16.7357805 3.18881156,16.7357805 L38.6651,16.7357805 C40.426232,16.7357805 41.8539116,18.1587919 41.8539116,19.9142687 L41.8539116,28.7194643 C41.8539116,30.4748948 40.4253131,31.8979523 38.6651,31.8979523 L3.18881156,31.8979523 C1.42767956,31.8979523 9.23705556e-14,30.474941 9.23705556e-14,28.7194643 L9.23705556e-14,19.9142687 L9.23705556e-14,19.9142687 L9.23705556e-14,19.9142687 Z" id="Rectangle-123"></path>
                                        <path d="M23.8080071,34.424981 L23.8080071,16.3923316 L23.8256711,16.3637627 L23.8256711,16.3637627 C23.935208,15.2066692 24.5460804,14.2012089 25.4312611,13.5816184 L25.4312611,13.5816184 C27.3999554,12.7147399 28.7797996,10.6992336 28.7797996,8.35121302 C28.7797996,8.03575498 28.7548934,7.72629885 28.706999,7.42482376 L28.4351234,3.96520789 L28.3766814,3.22153397 C28.3766814,1.61359035 27.1133059,0.310094502 25.5548532,0.310094502 L15.8800137,0.310094502 C14.321561,0.310094502 13.0581855,1.61359035 13.0581855,3.22153397 L13.0581855,3.22153397 L12.727868,7.42482376 C12.6799735,7.72629885 12.6550672,8.03575498 12.6550672,8.35121302 C12.6550672,10.6992336 14.0349115,12.7147399 16.0036057,13.5816184 L16.0036057,13.5816184 C16.8809954,14.1957554 17.4888841,15.1889994 17.606187,16.3332445 L17.606187,16.3332445 L17.606187,35.6884953 L17.6165234,35.6884953 L17.6165234,36.9520095 L17.5079915,36.9520095 L17.5622592,37.5160542 C17.563034,37.5385277 17.1952289,38.0807637 17.1060185,38.3023776 C16.0718807,39.1971501 15.3620019,40.4690239 15.1811749,41.9093837 L15.1357952,42.0060669 L15.1698611,42.0060669 C15.1473514,42.2134942 15.1357952,42.4242843 15.1357952,42.637824 C15.1357952,45.7780126 17.6347797,48.3236384 20.7174335,48.3236384 C23.8000871,48.3236384 26.2990716,45.7780126 26.2990716,42.637824 C26.2990716,42.4242843 26.2875156,42.2134942 26.2650057,42.0060669 L26.2990716,42.0060669 L26.253692,41.9093837 C26.0461254,40.2560315 25.1414716,38.8246792 23.8494717,37.9308484 C23.8290287,37.8183268 23.8183435,37.7023178 23.8183435,37.5837667 C23.8183435,37.3622503 23.8556501,37.1496099 23.9242121,36.9520095 L23.8183435,36.9520095 L23.8183435,34.424981 L23.8080071,34.424981 L23.8080071,34.424981 Z M24.3454982,0.310094502 C24.0486501,0.310094502 23.8080071,0.558379425 23.8080071,0.8646544 L23.8080071,5.43977356 C23.8080071,7.20085466 22.4243101,8.62849298 20.7174335,8.62849298 C19.0105567,8.62849298 17.6268597,7.20085466 17.6268597,5.43977356 L17.6268597,0.8646544 C17.6268597,0.558379425 17.3862167,0.310094502 17.0893686,0.310094502 L24.3454982,0.310094502 L24.3454982,0.310094502 Z M18.8568874,42.637824 C18.8568874,43.6845535 19.6898822,44.5330954 20.7174335,44.5330954 C21.7449846,44.5330954 22.5779795,43.6845535 22.5779795,42.637824 C22.5779795,41.5910945 21.7449846,40.7425525 20.7174335,40.7425525 C19.6898822,40.7425525 18.8568874,41.5910945 18.8568874,42.637824 L18.8568874,42.637824 Z" id="Path-2"></path>
                                    </g>
                                </g>
                            </g>
                        </g>
                    </g>
                </g>
            </g>
        </g>
    </g>
</svg>