<?xml version="1.0" encoding="UTF-8" standalone="no"?>
<svg width="100px" height="100px" viewBox="0 0 100 100" version="1.1" xmlns="http://www.w3.org/2000/svg" xmlns:xlink="http://www.w3.org/1999/xlink">
    <!-- Generator: Sketch 41.2 (35397) - http://www.bohemiancoding.com/sketch -->
    <title>Slice 3</title>
    <desc>Created with Sketch.</desc>
    <defs></defs>
    <g id="Page-1" stroke="none" stroke-width="1" fill="none" fill-rule="evenodd">
        <g id="icons" transform="translate(-482.000000, 0.000000)">
            <g id="builditwithme" transform="translate(482.000000, 0.000000)">
                <g id="Slice-2">
                    <g id="Page-1">
                        <g id="twitter-copy-2">
                            <rect id="Rectangle-path" x="0" y="0" width="100" height="100"></rect>
                            <g id="logo" transform="translate(15.000000, 15.000000)" fill="#FFFFFF">
                                <g id="Page-1">
                                    <g id="logo">
                                        <g id="Page-1">
                                            <g id="asd">
                                                <g id="Logo-5-+-BUILD-IT-WITH-ME">
                                                    <g id="Logo-5" transform="translate(35.074910, 35.982795) rotate(-45.000000) translate(-35.074910, -35.982795) translate(12.074910, 9.482795)">
                                                        <path d="M29.9869953,32.3105794 L41.6495935,32.3105794 C42.4095809,32.3105794 43.0246504,31.6975822 43.0246504,30.9414121 L43.0246504,21.4333773 C43.0246504,20.6799018 42.4090165,20.06421 41.6495935,20.06421 L40.2929266,20.06421 L40.2929266,20.06421 L40.2929266,22.4422244 C40.2929266,23.0076285 39.8331375,23.4659793 39.2685301,23.4659793 C38.7027716,23.4659793 38.2441337,23.0112881 38.2441337,22.4422244 L38.2441337,20.06421 L34.8294789,20.06421 L34.8294789,25.1698946 C34.8294789,25.7318444 34.3696898,26.1873946 33.8050826,26.1873946 C33.2393239,26.1873946 32.7806861,25.7309552 32.7806861,25.1698946 L32.7806861,20.06421 L32.7806861,20.06421 L29.9869953,20.06421 L29.9869953,18.0231482 L14.6303245,18.0231482 L14.6303245,20.06421 L12.9756882,20.06421 L12.9756882,20.06421 L12.9756882,25.1698946 C12.9756882,25.7318444 12.5158991,26.1873946 11.9512918,26.1873946 C11.3855333,26.1873946 10.9268953,25.7309552 10.9268953,25.1698946 L10.9268953,20.06421 L7.51224055,20.06421 L7.51224055,22.4422244 C7.51224055,23.0076285 7.05245143,23.4659793 6.48784412,23.4659793 C5.92208557,23.4659793 5.46344767,23.0112881 5.46344767,22.4422244 L5.46344767,20.06421 L5.46344767,20.06421 L3.42384985,20.06421 C2.66386238,20.06421 2.04879288,20.677207 2.04879288,21.4333773 L2.04879288,30.9414121 C2.04879288,31.6948874 2.66442685,32.3105794 3.42384985,32.3105794 L14.6303245,32.3105794 L14.6303245,34.3516409 L29.9869953,34.3516409 L29.9869953,32.3105794 L29.9869953,32.3105794 L29.9869953,32.3105794 Z M-2.84217094e-14,21.4461355 C-2.84217094e-14,19.5556718 1.53849065,18.0231482 3.43410476,18.0231482 L41.6393385,18.0231482 C43.5359422,18.0231482 45.0734433,19.555622 45.0734433,21.4461355 L45.0734433,30.9286539 C45.0734433,32.8191175 43.5349526,34.3516409 41.6393385,34.3516409 L3.43410476,34.3516409 C1.53750106,34.3516409 -2.84217094e-14,32.8191672 -2.84217094e-14,30.9286539 L-2.84217094e-14,21.4461355 L-2.84217094e-14,21.4461355 L-2.84217094e-14,21.4461355 Z" id="Rectangle-123"></path>
                                                        <path d="M25.6393923,37.0730565 L25.6393923,17.6532802 L25.658415,17.6225137 L25.658415,17.6225137 C25.7763778,16.376413 26.4342404,15.2936096 27.387512,14.6263583 L27.387512,14.6263583 C29.5076443,13.6927968 30.9936303,11.5222516 30.9936303,8.99361402 C30.9936303,8.65388998 30.9668083,8.32062953 30.9152297,7.99596405 L30.6224406,4.27022388 L30.559503,3.46934428 C30.559503,1.73771268 29.1989448,0.333947925 27.5206111,0.333947925 L17.1015532,0.333947925 C15.4232195,0.333947925 14.0626613,1.73771268 14.0626613,3.46934428 L14.0626613,3.46934428 L13.7069348,7.99596405 C13.6553561,8.32062953 13.6285339,8.65388998 13.6285339,8.99361402 C13.6285339,11.5222516 15.1145201,13.6927968 17.2346523,14.6263583 L17.2346523,14.6263583 C18.1795335,15.2877366 18.8341829,16.357384 18.9605091,17.5896479 L18.9605091,17.5896479 L18.9605091,38.4337642 L18.9716406,38.4337642 L18.9716406,39.7944718 L18.8547601,39.7944718 L18.9132022,40.4019045 C18.9140366,40.4261068 18.5179388,41.0100532 18.4218661,41.2487143 C17.3081792,42.2123155 16.5436944,43.5820257 16.3489576,45.1331824 L16.3000871,45.2373028 L16.3367735,45.2373028 C16.3125323,45.4606861 16.3000871,45.6876908 16.3000871,45.9176566 C16.3000871,49.2993982 18.9913012,52.0408414 22.3110822,52.0408414 C25.630863,52.0408414 28.3220771,49.2993982 28.3220771,45.9176566 C28.3220771,45.6876908 28.3096322,45.4606861 28.2853908,45.2373028 L28.3220771,45.2373028 L28.2732068,45.1331824 C28.0496735,43.3526493 27.075431,41.811193 25.6840464,40.848606 C25.6620309,40.7274289 25.6505238,40.6024961 25.6505238,40.4748257 C25.6505238,40.2362696 25.6907001,40.0072722 25.7645361,39.7944718 L25.6505238,39.7944718 L25.6505238,37.0730565 L25.6393923,37.0730565 L25.6393923,37.0730565 Z M26.2182288,0.333947925 C25.8985463,0.333947925 25.6393923,0.601331688 25.6393923,0.931166277 L25.6393923,5.85821768 C25.6393923,7.75476656 24.149257,9.29222321 22.3110822,9.29222321 C20.4729072,9.29222321 18.982772,7.75476656 18.982772,5.85821768 L18.982772,0.931166277 C18.982772,0.601331688 18.723618,0.333947925 18.4039354,0.333947925 L26.2182288,0.333947925 L26.2182288,0.333947925 Z M20.3074172,45.9176566 C20.3074172,47.0449038 21.2044885,47.9587181 22.3110822,47.9587181 C23.4176757,47.9587181 24.3147472,47.0449038 24.3147472,45.9176566 C24.3147472,44.7904095 23.4176757,43.876595 22.3110822,43.876595 C21.2044885,43.876595 20.3074172,44.7904095 20.3074172,45.9176566 L20.3074172,45.9176566 Z" id="Path-2"></path>
                                                    </g>
                                                </g>
                                            </g>
                                        </g>
                                    </g>
                                </g>
                            </g>
                        </g>
                    </g>
                </g>
            </g>
        </g>
    </g>
</svg>