<?xml version="1.0" encoding="UTF-8" standalone="no"?>
<svg width="33px" height="33px" viewBox="0 0 33 33" version="1.1" xmlns="http://www.w3.org/2000/svg" xmlns:xlink="http://www.w3.org/1999/xlink" xmlns:sketch="http://www.bohemiancoding.com/sketch/ns">
    <!-- Generator: Sketch 3.4.1 (15681) - http://www.bohemiancoding.com/sketch -->
    <title>logo</title>
    <desc>Created with Sketch.</desc>
    <defs></defs>
    <g id="Page-1" stroke="none" stroke-width="1" fill="none" fill-rule="evenodd" sketch:type="MSPage">
        <g id="logo" sketch:type="MSLayerGroup" transform="translate(-8.000000, -10.000000)" fill="#202020">
            <g id="Page-1" sketch:type="MSShapeGroup">
                <g id="asd">
                    <g id="Logo-5-+-BUILD-IT-WITH-ME">
                        <g id="Logo-5" transform="translate(25.811686, 26.765478) rotate(-45.000000) translate(-25.811686, -26.765478) translate(8.811686, 7.265478)">
                            <path d="M22.2760537,24.0930619 L30.939698,24.0930619 C31.5042601,24.0930619 31.9611689,23.6359677 31.9611689,23.0721135 L31.9611689,15.9822478 C31.9611689,15.420403 31.5038408,14.9612994 30.939698,14.9612994 L29.9318883,14.9612994 L29.9318883,14.9612994 L29.9318883,16.7345158 C29.9318883,17.1561213 29.5903307,17.4979001 29.1709081,17.4979001 C28.7506303,17.4979001 28.4099279,17.1588501 28.4099279,16.7345158 L28.4099279,14.9612994 L25.8733272,14.9612994 L25.8733272,18.7684604 C25.8733272,19.18749 25.5317696,19.5271806 25.112347,19.5271806 C24.6920692,19.5271806 24.3513668,19.186827 24.3513668,18.7684604 L24.3513668,14.9612994 L24.3513668,14.9612994 L22.2760537,14.9612994 L22.2760537,13.4393389 L10.868241,13.4393389 L10.868241,14.9612994 L9.63908268,14.9612994 L9.63908268,14.9612994 L9.63908268,18.7684604 C9.63908268,19.18749 9.29752505,19.5271806 8.87810246,19.5271806 C8.4578247,19.5271806 8.11712225,19.186827 8.11712225,18.7684604 L8.11712225,14.9612994 L5.58052155,14.9612994 L5.58052155,16.7345158 C5.58052155,17.1561213 5.23896392,17.4979001 4.81954134,17.4979001 C4.39926357,17.4979001 4.05856113,17.1588501 4.05856113,16.7345158 L4.05856113,14.9612994 L4.05856113,14.9612994 L2.54343132,14.9612994 C1.9788692,14.9612994 1.52196042,15.4183935 1.52196042,15.9822478 L1.52196042,23.0721135 C1.52196042,23.6339583 1.97928852,24.0930619 2.54343132,24.0930619 L10.868241,24.0930619 L10.868241,25.6150223 L22.2760537,25.6150223 L22.2760537,24.0930619 L22.2760537,24.0930619 L22.2760537,24.0930619 Z M7.81597009e-14,15.9917612 C7.81597009e-14,14.5820973 1.14287877,13.4393389 2.55104925,13.4393389 L30.93208,13.4393389 C32.3409856,13.4393389 33.4831293,14.5820602 33.4831293,15.9917612 L33.4831293,23.0626001 C33.4831293,24.472264 32.3402505,25.6150223 30.93208,25.6150223 L2.55104925,25.6150223 C1.14214365,25.6150223 7.81597009e-14,24.4723011 7.81597009e-14,23.0626001 L7.81597009e-14,15.9917612 L7.81597009e-14,15.9917612 L7.81597009e-14,15.9917612 Z" id="Rectangle-123"></path>
                            <path d="M19.0464057,27.6443029 L19.0464057,13.163539 L19.0605369,13.1405973 L19.0605369,13.1405973 C19.1481664,12.2114162 19.6368643,11.4040011 20.3450089,10.9064511 L20.3450089,10.9064511 C21.9199643,10.2103214 23.0238397,8.59180884 23.0238397,6.70627712 C23.0238397,6.45295476 23.0039147,6.20445211 22.9655992,5.96235847 L22.7480987,3.18418209 L22.7013451,2.5869894 C22.7013451,1.29576195 21.6906447,0.249015282 20.4438826,0.249015282 L12.704011,0.249015282 C11.4572488,0.249015282 10.4465484,1.29576195 10.4465484,2.5869894 L10.4465484,2.5869894 L10.1822944,5.96235847 C10.1439788,6.20445211 10.1240538,6.45295476 10.1240538,6.70627712 C10.1240538,8.59180884 11.2279292,10.2103214 12.8028846,10.9064511 L12.8028846,10.9064511 C13.5047963,11.3996218 13.9911073,12.1972268 14.0849496,13.1160903 L14.0849496,13.1160903 L14.0849496,28.6589432 L14.0932187,28.6589432 L14.0932187,29.6735834 L14.0063932,29.6735834 L14.0498074,30.1265284 C14.0504272,30.1445753 13.7561831,30.5800072 13.6848148,30.7579699 C12.8575046,31.4764993 12.2896015,32.4978525 12.1449399,33.6545051 L12.1086362,33.7321446 L12.1358889,33.7321446 C12.1178811,33.898715 12.1086362,34.0679859 12.1086362,34.2394647 C12.1086362,36.7611313 14.1078238,38.805346 16.5739468,38.805346 C19.0400697,38.805346 21.0392573,36.7611313 21.0392573,34.2394647 C21.0392573,34.0679859 21.0300125,33.898715 21.0120046,33.7321446 L21.0392573,33.7321446 L21.0029536,33.6545051 C20.8369003,32.3268132 20.1131773,31.1773939 19.0795774,30.4596207 C19.063223,30.3692624 19.0546748,30.2761037 19.0546748,30.1809036 C19.0546748,30.0030192 19.0845201,29.8322625 19.1393697,29.6735834 L19.0546748,29.6735834 L19.0546748,27.6443029 L19.0464057,27.6443029 L19.0464057,27.6443029 Z M19.4763986,0.249015282 C19.2389201,0.249015282 19.0464057,0.448395599 19.0464057,0.694343685 L19.0464057,4.36830301 C19.0464057,5.7825045 17.9394481,6.92894133 16.5739468,6.92894133 C15.2084454,6.92894133 14.1014878,5.7825045 14.1014878,4.36830301 L14.1014878,0.694343685 C14.1014878,0.448395599 13.9089734,0.249015282 13.6714949,0.249015282 L19.4763986,0.249015282 L19.4763986,0.249015282 Z M15.0855099,34.2394647 C15.0855099,35.0800202 15.7519058,35.7614251 16.5739468,35.7614251 C17.3959877,35.7614251 18.0623836,35.0800202 18.0623836,34.2394647 C18.0623836,33.3989092 17.3959877,32.7175043 16.5739468,32.7175043 C15.7519058,32.7175043 15.0855099,33.3989092 15.0855099,34.2394647 L15.0855099,34.2394647 Z" id="Path-2"></path>
                        </g>
                    </g>
                </g>
            </g>
        </g>
    </g>
</svg>