<?xml version="1.0" encoding="UTF-8" standalone="no"?>
<svg width="100px" height="100px" viewBox="0 0 100 100" version="1.1" xmlns="http://www.w3.org/2000/svg" xmlns:xlink="http://www.w3.org/1999/xlink">
    <!-- Generator: Sketch 41.2 (35397) - http://www.bohemiancoding.com/sketch -->
    <title>Slice 3</title>
    <desc>Created with Sketch.</desc>
    <defs></defs>
    <g id="Page-1" stroke="none" stroke-width="1" fill="none" fill-rule="evenodd">
        <g id="icons">
            <g id="twitter">
                <g id="s">
                    <g id="Page-1">
                        <g id="twitter">
                            <rect id="Rectangle-path" x="0" y="0" width="100" height="100"></rect>
                            <path d="M41.6269767,68.7934308 C59.1786047,68.7934308 68.7786047,54.2520354 68.7786047,41.6418028 C68.7786047,41.2287796 68.7786047,40.8176168 68.7506977,40.4083145 C70.6182909,39.057451 72.2304288,37.3848343 73.5116279,35.4687796 C71.7700075,36.2405038 69.9224731,36.7466003 68.0306977,36.9701749 C70.0227795,35.7775834 71.5137182,33.9018438 72.2260465,31.6920354 C70.3528512,32.8035802 68.3035276,33.5869415 66.1665116,34.0083145 C63.2085261,30.8630015 58.5083151,30.0931751 54.701487,32.1305097 C50.894659,34.1678443 48.9279535,38.5056647 49.904186,42.7115703 C42.2314339,42.3269183 35.0827456,38.7028694 30.2372093,32.7413377 C27.7044144,37.101607 28.998117,42.679681 33.1916279,45.4799424 C31.6730069,45.4349332 30.1874965,45.0252692 28.8604651,44.2855238 L28.8604651,44.406454 C28.8617082,48.9489526 32.0637237,52.8614032 36.5162791,53.7608726 C35.1113853,54.1440169 33.6373592,54.2000248 32.2074419,53.9245935 C33.4575775,57.8118918 37.0401387,60.4748891 41.1227907,60.5515703 C37.7436931,63.2072576 33.569413,64.6489242 29.2716279,64.6445935 C28.5123787,64.643136 27.753868,64.5971656 27,64.5069191 C31.3639739,67.3074337 36.4416994,68.7929041 41.6269767,68.7859889" id="Shape" fill="#FFFFFF"></path>
                        </g>
                    </g>
                </g>
            </g>
        </g>
    </g>
</svg>